<?xml version="1.0" encoding="utf-8"?>
<!-- Generator: Adobe Illustrator 24.1.2, SVG Export Plug-In . SVG Version: 6.00 Build 0)  -->
<svg version="1.1" id="Слой_1" xmlns="http://www.w3.org/2000/svg" xmlns:xlink="http://www.w3.org/1999/xlink" x="0px" y="0px"
	 viewBox="0 0 2640 240" style="enable-background:new 0 0 2640 240;" xml:space="preserve">
<style type="text/css">
	.st0{fill:none;stroke:#3A3232;stroke-width:4;stroke-linecap:round;stroke-miterlimit:10;}
	.st1{fill:#3A3232;}
	.st2{clip-path:url(#SVGID_2_);}
	.st3{clip-path:url(#SVGID_4_);fill:#3A3232;}
	.st4{clip-path:url(#SVGID_4_);fill:#823737;}
</style>
<line class="st0" x1="316" y1="0" x2="316" y2="240"/>
<g>
	<path class="st1" d="M429.34,207.8c-41.41,0-60.63-16.03-60.63-50.32V80.52c0-34.29,19.23-50.32,60.63-50.32h61.62
		c6.16,0,8.87,2.71,8.87,8.88v29.85c0,6.17-2.71,8.88-8.87,8.88h-51.27c-10.35,0-15.04,3.95-15.04,12.33v58.95
		c0,8.39,3.7,12.09,11.34,12.09h23.91V122.7c0-6.17,2.71-8.88,8.87-8.88h38.2c6.16,0,8.87,2.71,8.87,8.88v76.22
		c0,6.17-2.71,8.88-8.87,8.88H429.34z"/>
	<path class="st1" d="M554.79,207.8c-6.16,0-8.87-2.71-8.87-8.88V39.08c0-6.17,2.71-8.88,8.87-8.88h114.37
		c6.16,0,8.87,2.71,8.87,8.88v28.86c0,6.17-2.71,8.88-8.87,8.88h-68.03v18.99h48.06c6.16,0,8.87,2.71,8.87,8.88v26.39
		c0,6.17-2.71,8.88-8.87,8.88h-48.06v21.21h68.03c6.16,0,8.87,2.71,8.87,8.88v28.86c0,6.17-2.71,8.88-8.87,8.88H554.79z"/>
	<path class="st1" d="M715.99,207.8c-6.16,0-8.87-2.71-8.87-8.88V39.08c0-6.17,2.71-8.88,8.87-8.88h25.63
		c6.41,0,10.35,1.73,14.54,6.66l47.82,54.76V39.08c0-6.17,2.71-8.88,8.87-8.88h36.97c6.16,0,8.87,2.71,8.87,8.88v159.84
		c0,6.17-2.71,8.88-8.87,8.88h-36.97c-6.16,0-8.87-2.71-8.87-8.88v-30.34l-42.15-51.06v81.4c0,6.17-2.71,8.88-8.87,8.88H715.99z"/>
	<path class="st1" d="M901.59,207.8c-6.16,0-8.87-2.71-8.87-8.88V39.08c0-6.17,2.71-8.88,8.87-8.88h114.37
		c6.16,0,8.87,2.71,8.87,8.88v28.86c0,6.17-2.71,8.88-8.87,8.88h-68.03v18.99h48.06c6.16,0,8.87,2.71,8.87,8.88v26.39
		c0,6.17-2.71,8.88-8.87,8.88h-48.06v21.21h68.03c6.16,0,8.87,2.71,8.87,8.88v28.86c0,6.17-2.71,8.88-8.87,8.88H901.59z"/>
	<path class="st1" d="M1062.78,207.8c-6.16,0-8.87-2.71-8.87-8.88V39.08c0-6.17,2.71-8.88,8.87-8.88h82.08
		c36.97,0,48.56,16.77,48.56,41.19v11.35c0,13.81-3.45,23.68-13.8,28.12c9.37,4.69,14.3,16.53,14.3,37.25v48.35
		c0,6.17-2.71,11.35-8.87,11.35h-35.99c-6.16,0-10.35-4.19-10.35-10.36v-37.49c0-7.4,0-9.37-6.9-9.37l-22.19,0v48.35
		c0,6.17-2.71,8.88-8.87,8.88H1062.78z M1109.62,106.17h18.49c8.63,0,10.85-4.93,10.85-11.59v-8.39c0-6.66-2.22-11.59-10.85-11.59
		h-18.49V106.17z"/>
	<path class="st1" d="M1267.61,207.8h-36.23c-6.16,0-8.87-2.71-8.87-8.88V133.8c0-9.87,2.96-22.2,9.61-39.47l21.44-55.99
		c1.97-5.67,5.92-8.14,12.57-8.14h66.3c6.41,0,10.35,2.47,12.32,8.14l21.44,55.99c6.66,17.27,9.61,29.6,9.61,39.47v65.12
		c0,6.17-2.71,8.88-8.87,8.88h-37.22c-6.65,0-9.61-2.71-9.61-8.88v-34.53h-43.63v34.53C1276.48,205.08,1273.77,207.8,1267.61,207.8z
		 M1279.93,119.49h38.7L1307.04,82c-1.23-2.96-2.71-4.19-4.68-4.19h-6.16c-1.97,0-3.45,1.23-4.68,4.19L1279.93,119.49z"/>
	<path class="st1" d="M1441.13,207.8c-6.16,0-8.87-2.71-8.87-8.88V77.8h-36.23c-6.16,0-8.87-2.71-8.87-8.88V39.08
		c0-6.17,2.71-8.88,8.87-8.88h130.14c6.16,0,8.87,2.71,8.87,8.88v29.85c0,6.17-2.71,8.88-8.87,8.88h-36.23v121.11
		c0,6.17-2.71,8.88-8.87,8.88H1441.13z"/>
	<path class="st1" d="M1555,198.92v-29.35c0-6.17,2.71-8.88,8.87-8.88h24.4V77.8h-24.4c-6.16,0-8.87-2.71-8.87-8.88V39.08
		c0-6.17,2.71-8.88,8.87-8.88h105c6.16,0,8.87,2.71,8.87,8.88v29.85c0,6.17-2.71,8.88-8.87,8.88h-23.91v82.88h23.91
		c6.16,0,8.87,2.71,8.87,8.88v29.35c0,6.17-2.71,8.88-8.87,8.88h-105C1557.71,207.8,1555,205.08,1555,198.92z"/>
	<path class="st1" d="M1782.01,211.5c-61.62,0-76.66-20.23-76.66-50.32V77.06c0-30.09,15.04-50.57,76.66-50.57
		c61.62,0,76.41,20.47,76.41,50.57v84.11C1858.42,191.27,1843.63,211.5,1782.01,211.5z M1782.02,163.89
		c17.99,0,20.7-4.93,20.7-11.59V85.94c0-6.41-2.71-11.35-20.7-11.35c-17.75,0-20.7,4.93-20.7,11.35v66.35
		C1761.32,158.96,1764.27,163.89,1782.02,163.89z"/>
	<path class="st1" d="M1898.59,207.8c-6.16,0-8.87-2.71-8.87-8.88V39.08c0-6.17,2.71-8.88,8.87-8.88h25.63
		c6.41,0,10.35,1.73,14.54,6.66l47.82,54.76V39.08c0-6.17,2.71-8.88,8.87-8.88h36.97c6.16,0,8.87,2.71,8.87,8.88v159.84
		c0,6.17-2.71,8.88-8.87,8.88h-36.97c-6.16,0-8.87-2.71-8.87-8.88v-30.34l-42.15-51.06v81.4c0,6.17-2.71,8.88-8.87,8.88H1898.59z"/>
	<path class="st1" d="M2214.58,211.5c-61.62,0-76.66-20.23-76.66-50.32V77.06c0-30.09,15.04-50.57,76.66-50.57
		c61.62,0,76.41,20.47,76.41,50.57v84.11C2290.99,191.27,2276.2,211.5,2214.58,211.5z M2214.58,163.89c17.99,0,20.7-4.93,20.7-11.59
		V85.94c0-6.41-2.71-11.35-20.7-11.35c-17.75,0-20.7,4.93-20.7,11.35v66.35C2193.87,158.96,2196.83,163.89,2214.58,163.89z"/>
	<path class="st1" d="M2331.16,207.8c-6.16,0-8.87-2.71-8.87-8.88V39.08c0-6.17,2.71-8.88,8.87-8.88h25.63
		c6.41,0,10.35,1.73,14.54,6.66l47.82,54.76V39.08c0-6.17,2.71-8.88,8.87-8.88H2465c6.16,0,8.87,2.71,8.87,8.88v159.84
		c0,6.17-2.71,8.88-8.87,8.88h-36.97c-6.16,0-8.87-2.71-8.87-8.88v-30.34l-42.15-51.06v81.4c0,6.17-2.71,8.88-8.87,8.88H2331.16z"/>
	<path class="st1" d="M2516.76,207.8c-6.16,0-8.87-2.71-8.87-8.88V39.08c0-6.17,2.71-8.88,8.87-8.88h114.37
		c6.16,0,8.87,2.71,8.87,8.88v28.86c0,6.17-2.71,8.88-8.87,8.88h-68.03v18.99h48.06c6.16,0,8.87,2.71,8.87,8.88v26.39
		c0,6.17-2.71,8.88-8.87,8.88h-48.06v21.21h68.03c6.16,0,8.87,2.71,8.87,8.88v28.86c0,6.17-2.71,8.88-8.87,8.88H2516.76z"/>
</g>
<polygon style="fill:none;" points="2913.09,-309.24 2917.84,-309.24 2917.84,-309.24 2913.09,-309.24 "/>
<g>
	<g>
		<defs>
			<rect id="SVGID_1_" x="0" y="22" width="263.7" height="192.24"/>
		</defs>
		<clipPath id="SVGID_2_">
			<use xlink:href="#SVGID_1_"  style="overflow:visible;"/>
		</clipPath>
		<g class="st2">
			<defs>
				<rect id="SVGID_3_" x="0" y="22" width="263.7" height="192.24"/>
			</defs>
			<clipPath id="SVGID_4_">
				<use xlink:href="#SVGID_3_"  style="overflow:visible;"/>
			</clipPath>
			<path class="st3" d="M187.08,142.81v12.91c0,32.18-25.65,58.51-56.99,58.51h-73.1C25.65,214.24,0,187.91,0,155.73V80.67
				c0-3.1,0.24-6.15,0.7-9.12C5,43.66,28.67,22.16,56.99,22.16h68.81c9.87,1.27,17.56,9.97,17.56,20.43v8.37
				c0,11.33-9.03,20.59-20.06,20.59h-48.1c-14.91,0-27.11,12.53-27.11,27.83v37.97c0,15.31,12.2,27.83,27.11,27.83h36.98
				c0.32,0,0.64-0.01,0.96-0.02c0.2,0.01,0.41,0.02,0.61,0.02h12.38c7.38-0.08,13.32-6.1,13.32-13.53c0-2.02-0.55-3.92-1.53-5.59
				c-2.25-3.84-6.75-6.46-11.95-6.46H96.73c-10.2,0-18.54-8.57-18.54-19.04v-4.72c0-10.47,8.35-19.04,18.54-19.04h42.57
				c21.55,0.07,39.72,13.74,45.71,32.53C186.35,133.6,187.08,138.12,187.08,142.81"/>
			<path class="st4" d="M263.7,80.24v113.52c0,11.18-8.91,20.32-19.8,20.32h-8.67c-10.89,0-19.8-9.14-19.8-20.32V98.57
				c0-14.94-11.77-27.03-26.32-27.03h-8.41c-10.89,0-19.8-9.15-19.8-20.32v-8.9c0-11.18,8.91-20.32,19.8-20.32h26.27
				C238.33,22,263.7,48.05,263.7,80.24"/>
		</g>
	</g>
</g>
</svg>
